<?xml version="1.0" ?><svg enable-background="new 0 0 512 512" id="Layer_1" version="1.1" viewBox="0 0 512 512" xml:space="preserve" xmlns="http://www.w3.org/2000/svg" xmlns:xlink="http://www.w3.org/1999/xlink"><g><g><linearGradient gradientUnits="userSpaceOnUse" id="SVGID_1_" x1="0.0000083" x2="512" y1="256" y2="256"><stop offset="0" style="stop-color:#acacac"/><stop offset="1" style="stop-color:#3d3d3d"/></linearGradient><circle cx="256" cy="256" fill="url(#SVGID_1_)" r="256"/><linearGradient gradientUnits="userSpaceOnUse" id="SVGID_2_" x1="42.6666756" x2="469.333313" y1="256.0005188" y2="256.0005188"><stop offset="0" style="stop-color:#3d3d3d"/><stop offset="1" style="stop-color:#acacac"/></linearGradient><path d="M256,469.3338623c-117.6309204,0-213.3333282-95.7018738-213.3333282-213.3333435    c0-117.6309204,95.7024078-213.333313,213.3333282-213.333313c117.636261,0,213.333313,95.7024002,213.333313,213.333313    C469.333313,373.6319885,373.636261,469.3338623,256,469.3338623z" fill="url(#SVGID_2_)"/></g><g><polygon opacity="0.3" points="320.2602539,146.8122711 320.2602539,191.9983978 365.4463806,191.9983978   "/><path d="M310.6602478,201.5984039V144H159.7200165v240h208.5599823V201.5984039H310.6602478z     M188.517334,236.3333282h91.9413147v9.6000061H188.517334V236.3333282z M339.4602661,340.8293457H188.517334v-9.6000061    h150.9429321V340.8293457z M339.4602661,309.197876H188.517334v-9.6000061h150.9429321V309.197876z M339.4602661,277.5664063    H188.517334v-9.6000061h150.9429321V277.5664063z" opacity="0.3"/></g><g><polygon fill="#FFFFFF" points="312.2602539,138.8122711 312.2602539,183.9983978 357.4463806,183.9983978   "/><path d="M302.6602478,193.5984039V136H151.7200165v240h208.5599823V193.5984039H302.6602478z     M180.517334,228.3333282h91.9413147v9.6000061H180.517334V228.3333282z M331.4602661,332.8293457H180.517334v-9.6000061    h150.9429321V332.8293457z M331.4602661,301.197876H180.517334v-9.6000061h150.9429321V301.197876z M331.4602661,269.5664063    H180.517334v-9.6000061h150.9429321V269.5664063z" fill="#FFFFFF"/></g></g></svg>