<svg width="278" height="24" viewBox="0 0 278 24" fill="none" xmlns="http://www.w3.org/2000/svg">
<path d="M8.63068 23H0.896307V1.18182H8.6946C10.8892 1.18182 12.7784 1.61861 14.3622 2.49219C15.946 3.35866 17.1641 4.60511 18.0163 6.23153C18.8757 7.85795 19.3054 9.80398 19.3054 12.0696C19.3054 14.3423 18.8757 16.2955 18.0163 17.929C17.1641 19.5625 15.9389 20.8161 14.3409 21.6896C12.75 22.5632 10.8466 23 8.63068 23ZM5.50923 19.0476H8.43892C9.80256 19.0476 10.9496 18.8061 11.88 18.3232C12.8175 17.8331 13.5206 17.0767 13.9893 16.054C14.4652 15.0241 14.7031 13.696 14.7031 12.0696C14.7031 10.4574 14.4652 9.13991 13.9893 8.11719C13.5206 7.09446 12.821 6.34162 11.8906 5.85866C10.9602 5.37571 9.81321 5.13423 8.44957 5.13423H5.50923V19.0476ZM25.2527 23H20.3095L27.8414 1.18182H33.786L41.3074 23H36.3642L30.899 6.16761H30.7285L25.2527 23ZM24.9437 14.424H36.6199V18.0249H24.9437V14.424ZM40.4364 4.98508V1.18182H58.3555V4.98508H51.6758V23H47.1161V4.98508H40.4364ZM62.4011 23H57.4579L64.9899 1.18182H70.9345L78.4558 23H73.5126L68.0474 6.16761H67.877L62.4011 23ZM62.0922 14.424H73.7683V18.0249H62.0922V14.424Z" fill="white"/>
<path d="M89.7963 6.63636V10.0455H79.6969V6.63636H89.7963ZM82.0087 23V5.45383C82.0087 4.26775 82.2395 3.28409 82.7012 2.50284C83.1699 1.72159 83.8091 1.13565 84.6188 0.745027C85.4284 0.354402 86.3482 0.159089 87.378 0.159089C88.074 0.159089 88.7097 0.212357 89.285 0.318892C89.8674 0.425426 90.3006 0.521306 90.5847 0.606534L89.775 4.01562C89.5975 3.95881 89.3773 3.90554 89.1145 3.85582C88.8588 3.80611 88.5961 3.78125 88.3262 3.78125C87.6586 3.78125 87.1934 3.9375 86.9306 4.25C86.6678 4.5554 86.5364 4.98509 86.5364 5.53906V23H82.0087ZM99.3764 23.3196C97.7216 23.3196 96.2905 22.968 95.0831 22.2649C93.8828 21.5547 92.956 20.5675 92.3026 19.3033C91.6491 18.032 91.3224 16.5582 91.3224 14.8821C91.3224 13.1918 91.6491 11.7145 92.3026 10.4503C92.956 9.17898 93.8828 8.19176 95.0831 7.48864C96.2905 6.77841 97.7216 6.4233 99.3764 6.4233C101.031 6.4233 102.459 6.77841 103.659 7.48864C104.866 8.19176 105.797 9.17898 106.45 10.4503C107.104 11.7145 107.43 13.1918 107.43 14.8821C107.43 16.5582 107.104 18.032 106.45 19.3033C105.797 20.5675 104.866 21.5547 103.659 22.2649C102.459 22.968 101.031 23.3196 99.3764 23.3196ZM99.3977 19.804C100.151 19.804 100.779 19.5909 101.283 19.1648C101.788 18.7315 102.168 18.142 102.423 17.3963C102.686 16.6506 102.817 15.8018 102.817 14.8501C102.817 13.8984 102.686 13.0497 102.423 12.304C102.168 11.5582 101.788 10.9687 101.283 10.5355C100.779 10.1023 100.151 9.88565 99.3977 9.88565C98.6378 9.88565 97.9986 10.1023 97.4801 10.5355C96.9688 10.9687 96.5817 11.5582 96.3189 12.304C96.0632 13.0497 95.9354 13.8984 95.9354 14.8501C95.9354 15.8018 96.0632 16.6506 96.3189 17.3963C96.5817 18.142 96.9688 18.7315 97.4801 19.1648C97.9986 19.5909 98.6378 19.804 99.3977 19.804ZM110.381 23V6.63636H114.781V9.49148H114.952C115.25 8.47585 115.751 7.70881 116.454 7.19034C117.157 6.66477 117.967 6.40199 118.883 6.40199C119.11 6.40199 119.355 6.41619 119.618 6.4446C119.881 6.47301 120.112 6.51207 120.31 6.56179V10.5888C120.097 10.5249 119.803 10.468 119.426 10.4183C119.05 10.3686 118.705 10.3438 118.393 10.3438C117.725 10.3438 117.129 10.4893 116.603 10.7805C116.085 11.0646 115.673 11.4624 115.367 11.9737C115.069 12.4851 114.92 13.0746 114.92 13.7422V23H110.381ZM130.476 23H122.742V1.18182H130.54C132.735 1.18182 134.624 1.61861 136.208 2.49219C137.792 3.35866 139.01 4.60511 139.862 6.23153C140.721 7.85795 141.151 9.80398 141.151 12.0696C141.151 14.3423 140.721 16.2955 139.862 17.929C139.01 19.5625 137.785 20.8161 136.187 21.6896C134.596 22.5632 132.692 23 130.476 23ZM127.355 19.0476H130.285C131.648 19.0476 132.795 18.8061 133.726 18.3232C134.663 17.8331 135.366 17.0767 135.835 16.054C136.311 15.0241 136.549 13.696 136.549 12.0696C136.549 10.4574 136.311 9.13991 135.835 8.11719C135.366 7.09446 134.667 6.34162 133.736 5.85866C132.806 5.37571 131.659 5.13423 130.295 5.13423H127.355V19.0476ZM144.568 23V1.18182H159.27V4.98508H149.181V10.1839H158.513V13.9872H149.181V19.1967H159.312V23H144.568ZM166.879 1.18182L172.153 17.7585H172.355L177.639 1.18182H182.753L175.231 23H169.287L161.755 1.18182H166.879ZM185.379 23V1.18182H200.08V4.98508H189.992V10.1839H199.324V13.9872H189.992V19.1967H200.123V23H185.379ZM203.748 23V1.18182H208.361V19.1967H217.714V23H203.748ZM239.969 12.0909C239.969 14.4702 239.518 16.4943 238.616 18.1634C237.722 19.8324 236.5 21.1072 234.952 21.9879C233.411 22.8615 231.678 23.2983 229.753 23.2983C227.814 23.2983 226.074 22.858 224.533 21.9773C222.991 21.0966 221.773 19.8217 220.879 18.1527C219.984 16.4837 219.536 14.4631 219.536 12.0909C219.536 9.71165 219.984 7.6875 220.879 6.01847C221.773 4.34943 222.991 3.07812 224.533 2.20455C226.074 1.32386 227.814 0.883522 229.753 0.883522C231.678 0.883522 233.411 1.32386 234.952 2.20455C236.5 3.07812 237.722 4.34943 238.616 6.01847C239.518 7.6875 239.969 9.71165 239.969 12.0909ZM235.293 12.0909C235.293 10.5497 235.062 9.25 234.6 8.19176C234.146 7.13352 233.503 6.33097 232.672 5.78409C231.841 5.23722 230.868 4.96378 229.753 4.96378C228.638 4.96378 227.665 5.23722 226.834 5.78409C226.003 6.33097 225.357 7.13352 224.895 8.19176C224.44 9.25 224.213 10.5497 224.213 12.0909C224.213 13.6321 224.44 14.9318 224.895 15.9901C225.357 17.0483 226.003 17.8509 226.834 18.3977C227.665 18.9446 228.638 19.218 229.753 19.218C230.868 19.218 231.841 18.9446 232.672 18.3977C233.503 17.8509 234.146 17.0483 234.6 15.9901C235.062 14.9318 235.293 13.6321 235.293 12.0909ZM243.387 23V1.18182H251.994C253.649 1.18182 255.059 1.49787 256.224 2.12997C257.389 2.75497 258.276 3.625 258.887 4.74006C259.505 5.84801 259.814 7.12642 259.814 8.57528C259.814 10.0241 259.502 11.3026 258.877 12.4105C258.252 13.5185 257.346 14.3814 256.16 14.9993C254.981 15.6172 253.553 15.9261 251.877 15.9261H246.391V12.2294H251.132C252.019 12.2294 252.751 12.0767 253.326 11.7713C253.909 11.4588 254.342 11.0291 254.626 10.4822C254.917 9.92827 255.063 9.29261 255.063 8.57528C255.063 7.85085 254.917 7.21875 254.626 6.67898C254.342 6.1321 253.909 5.70952 253.326 5.41122C252.744 5.10582 252.005 4.95312 251.11 4.95312H247.999V23H243.387ZM262.81 23V1.18182H277.512V4.98508H267.423V10.1839H276.756V13.9872H267.423V19.1967H277.555V23H262.81Z" fill="#D50404"/>
</svg>
