<?xml version="1.0" ?><svg enable-background="new 0 0 512 512" id="Layer_1" version="1.1" viewBox="0 0 512 512" xml:space="preserve" xmlns="http://www.w3.org/2000/svg" xmlns:xlink="http://www.w3.org/1999/xlink"><g><g><linearGradient gradientUnits="userSpaceOnUse" id="SVGID_1_" x1="0.0000083" x2="512" y1="256" y2="256"><stop offset="0" style="stop-color:#4D4D4D"/><stop offset="1" style="stop-color:#7F8C8D"/></linearGradient><circle cx="256" cy="256" fill="url(#SVGID_1_)" r="256"/><linearGradient gradientUnits="userSpaceOnUse" id="SVGID_2_" x1="42.6666756" x2="469.333313" y1="256.0005188" y2="256.0005188"><stop offset="0" style="stop-color:#7F8C8D"/><stop offset="1" style="stop-color:#4D4D4D"/></linearGradient><path d="M256,469.3338623c-117.6309204,0-213.3333282-95.7018738-213.3333282-213.3333435    c0-117.6309204,95.7024078-213.333313,213.3333282-213.333313c117.636261,0,213.333313,95.7024002,213.333313,213.333313    C469.333313,373.6319885,373.636261,469.3338623,256,469.3338623z" fill="url(#SVGID_2_)"/></g><g><polygon opacity="0.3" points="339.3952026,144 330.1818848,144 330.1818848,227.1978607 197.8181305,227.1978607     197.8181305,144 144.0000153,144 144.0000153,384 183.4042664,384 183.4042664,260.7210693 344.5957336,260.7210693     344.5957336,384 384,384 384,182.9477386   "/><path d="M320.1818848,144H207.8181305v73.1978607h112.3637543V144z M303.6703796,203.7578735h-9.9999695V168.188797    h9.9999695V203.7578735z" opacity="0.3"/><path d="M193.4042664,384h141.1914673V270.7210693H193.4042664V384z M212.0783997,291.0895996H315.921051v10    H212.0783997V291.0895996z M212.0783997,319.9808044H315.921051v10H212.0783997V319.9808044z M212.0783997,348.8752136H315.921051    v10H212.0783997V348.8752136z" opacity="0.3"/></g><g><polygon fill="#FFFFFF" points="331.3952026,136 322.1818848,136 322.1818848,219.1978607 189.8181305,219.1978607     189.8181305,136 136.0000153,136 136.0000153,376 175.4042664,376 175.4042664,252.7210693 336.5957336,252.7210693     336.5957336,376 376,376 376,174.9477386   "/><path d="M312.1818848,136H199.8181305v73.1978607h112.3637543V136z M295.6703796,195.7578735h-9.9999695    V160.188797h9.9999695V195.7578735z" fill="#FFFFFF"/><path d="M185.4042664,376h141.1914673V262.7210693H185.4042664V376z M204.0783997,283.0895996H307.921051v10    H204.0783997V283.0895996z M204.0783997,311.9808044H307.921051v10H204.0783997V311.9808044z M204.0783997,340.8752136H307.921051    v10H204.0783997V340.8752136z" fill="#FFFFFF"/></g></g></svg>